<svg xmlns="http://www.w3.org/2000/svg" width="249" height="249" fill="none">
  <path fill="#fff" fill-rule="evenodd"
    d="M248.005 124.88c0 4.289-.218 8.527-.644 12.704V249H.629V137.435A125.243 125.243 0 0 1 0 124.88c0-4.238.213-8.427.629-12.555V1.628h110.769c4.145-.418 8.35-.632 12.604-.632 4.255 0 8.46.214 12.605.632H247.36v61.626h.001v48.922c.426 4.177.644 8.415.644 12.704Zm-2.144-60.126v37.068a122.995 122.995 0 0 0-13.414-37.068h13.414Zm0 47.5a121.51 121.51 0 0 0-15.135-47.5h-44.199v59.494h59.334v-11.994Zm-.001-49.632h-14.628a124.555 124.555 0 0 0-44.705-44.748V3.128h59.333v59.494Zm-16.368 0a123.067 123.067 0 0 0-42.965-43.007v43.007h42.965ZM184.398 3.128v13.53a123.235 123.235 0 0 0-37.368-13.53h37.368Zm0 15.251a121.8 121.8 0 0 0-47.868-15.25h-11.465v59.493h59.333V18.379Zm-120.8-15.25h37.377a123.237 123.237 0 0 0-37.377 13.533V3.128Zm47.877 0a121.799 121.799 0 0 0-47.877 15.255v44.238h59.334V3.128h-11.457Zm-50.013 0v14.754a124.557 124.557 0 0 0-44.69 44.739H2.13V3.128h59.333Zm0 16.495a123.056 123.056 0 0 0-42.949 42.998h42.95V19.624ZM2.13 64.754h13.429a122.965 122.965 0 0 0-13.43 37.148V64.754Zm0 61.626v10.978a121.524 121.524 0 0 0 15.645 48.516h43.688V126.38H2.13Zm0 59.494v-38.016a122.99 122.99 0 0 0 13.917 38.016H2.129Zm0 2.132h15.155a124.563 124.563 0 0 0 44.178 43.871V247.5H2.13v-59.494ZM63.592 247.5v-14.406a123.253 123.253 0 0 0 42.633 14.406H63.592Zm0-16.128c17.535 9.95 37.77 15.701 59.333 15.887v-59.253H63.592v43.366ZM184.398 247.5H141.78a123.242 123.242 0 0 0 42.618-14.398V247.5Zm-59.334-.241c21.564-.183 41.798-5.932 59.334-15.878v-43.375h-59.334v59.253Zm61.463.241v-15.614a124.564 124.564 0 0 0 44.194-43.88h15.14V247.5h-59.334Zm0-17.356a123.057 123.057 0 0 0 42.445-42.138h-42.445v42.138Zm0-44.27h43.703a121.52 121.52 0 0 0 15.631-48.368V126.38h-59.334v59.494Zm59.334-37.936a122.983 122.983 0 0 1-13.902 37.936h13.902v-37.936ZM19.033 188.006a123.059 123.059 0 0 0 42.43 42.129v-42.129h-42.43ZM17.278 64.754a121.513 121.513 0 0 0-15.15 47.648v11.846h59.334V64.754H17.278Zm46.314 0h59.333v3.621H76.91v55.873H63.592V64.754ZM76.91 126.38H63.592v59.494h59.333V126.38H96.964v55.43H76.91v-55.43Zm20.054-2.132h25.961V88.445H96.964v35.803Zm28.1-55.873h48.63v55.873h10.704V64.754h-59.334v3.621Zm48.63 58.005h10.704v59.494h-59.334V126.38h28.577v55.43h20.053v-55.43Zm-20.053-2.132V88.445h-28.577v35.803h28.577Z"
    clip-rule="evenodd" opacity=".13" />
</svg>